<?xml version="1.0" standalone="no"?>
<!DOCTYPE svg PUBLIC "-//W3C//DTD SVG 20010904//EN"
 "http://www.w3.org/TR/2001/REC-SVG-20010904/DTD/svg10.dtd">
<svg version="1.0" xmlns="http://www.w3.org/2000/svg"
 width="357.000000pt" height="357.000000pt" viewBox="0 0 357.000000 357.000000"
 preserveAspectRatio="xMidYMid meet">
<metadata>
Created by potrace 1.11, written by Peter Selinger 2001-2013
</metadata>
<g transform="translate(0.000000,357.000000) scale(0.100000,-0.100000)"
fill="#000000" stroke="none">
<path d="M295 3540 c-8 -16 -15 -32 -15 -35 3 -35 -50 -153 -88 -196 -33 -38
-30 -19 -47 -304 -8 -126 -8 -125 0 -185 8 -50 9 -80 4 -95 -5 -15 21 -188 32
-207 5 -10 9 -42 9 -72 0 -31 8 -72 19 -97 17 -38 34 -102 56 -209 3 -14 -3
-58 -13 -97 -12 -48 -15 -73 -8 -73 6 0 3 -5 -6 -11 -12 -6 -16 -19 -13 -40 2
-18 -3 -42 -11 -54 -11 -17 -12 -24 -3 -27 8 -3 10 -11 6 -22 -5 -11 -13 -16
-23 -12 -12 5 -15 2 -10 -10 5 -14 4 -15 -9 -4 -13 11 -15 9 -13 -14 1 -14 6
-26 11 -26 5 0 4 -7 -3 -15 -7 -8 -16 -12 -21 -9 -5 3 -9 0 -9 -6 0 -7 9 -14
21 -17 12 -4 16 -9 10 -12 -6 -4 -12 -19 -13 -33 -2 -20 -6 -24 -23 -20 -16 4
-17 2 -8 -8 19 -21 5 -40 -23 -30 -23 9 -28 6 -25 -14 1 -5 -6 -6 -15 -2 -15
6 -15 4 -3 -10 13 -16 12 -16 -18 -1 -37 20 -43 21 -43 7 0 -6 3 -9 8 -9 18 3
32 -2 32 -11 0 -5 -6 -10 -14 -10 -8 0 -16 -7 -20 -15 -3 -9 -6 -357 -6 -775
l0 -760 1575 2 1575 3 29 65 c16 36 46 105 67 154 21 49 47 103 58 120 12 17
32 56 45 86 32 72 63 105 85 93 29 -16 106 -95 106 -108 0 -7 7 -15 15 -19 13
-5 15 97 15 879 l0 885 -51 -37 c-62 -44 -129 -54 -202 -29 -25 8 -53 13 -61
10 -8 -3 -17 0 -22 7 -10 17 -5 405 6 454 14 60 12 140 -6 208 -17 66 -12 142
13 190 13 26 10 67 -5 67 -4 0 -13 19 -21 43 -9 31 -26 53 -68 87 -31 25 -60
46 -65 46 -4 1 -13 2 -19 3 -6 1 -8 13 -4 34 11 52 8 78 -12 106 -11 14 -30
49 -43 76 -29 63 -48 85 -73 85 -14 0 -17 5 -13 16 17 44 43 43 -1321 44
l-1292 0 -16 -30z m550 -430 c3 -5 -1 -10 -10 -10 -9 0 -13 5 -10 10 3 6 8 10
10 10 2 0 7 -4 10 -10z m545 -323 c19 -7 60 -12 90 -11 30 1 60 -2 65 -6 6 -4
35 -8 65 -10 30 -1 66 -3 80 -5 14 -2 37 -4 51 -4 15 -1 29 -8 32 -15 4 -11 1
-13 -11 -9 -14 6 -15 5 -2 -9 11 -11 20 -13 33 -7 13 7 17 6 17 -6 0 -10 5
-13 12 -9 7 4 8 3 4 -5 -8 -13 10 -41 26 -41 6 0 5 7 -2 15 -8 9 -8 15 -2 15
6 0 14 -9 17 -20 4 -11 11 -18 16 -15 5 4 9 1 9 -5 0 -6 4 -8 10 -5 6 3 7 -1
4 -9 -3 -9 -10 -13 -15 -10 -17 10 -9 -5 13 -26 12 -11 16 -20 10 -20 -7 0
-12 -9 -12 -20 0 -14 -5 -18 -17 -14 -10 3 -7 -1 5 -9 22 -13 23 -15 7 -30 -9
-10 -12 -17 -6 -17 13 0 32 35 24 44 -3 3 1 6 11 6 13 0 16 -5 11 -20 -4 -12
-2 -20 5 -20 6 0 8 -5 4 -12 -5 -7 -3 -8 5 -4 7 5 10 14 7 22 -3 7 0 16 6 20
7 5 9 -4 4 -29 -6 -33 -5 -36 14 -32 11 2 18 0 15 -6 -4 -5 -16 -9 -29 -9 -12
0 -27 -5 -34 -12 -15 -15 -103 -13 -117 4 -14 18 -36 21 -29 3 5 -12 1 -13
-25 -4 -26 9 -38 8 -69 -7 -20 -10 -44 -19 -52 -19 -8 -1 -22 -5 -30 -9 -9 -3
-27 -5 -40 -3 -14 3 -31 0 -38 -6 -10 -8 -16 -7 -23 4 -6 10 -9 10 -9 2 0 -7
-6 -13 -13 -13 -7 0 -20 -9 -30 -20 -10 -12 -22 -18 -28 -15 -5 4 -15 -7 -22
-24 -6 -17 -20 -34 -31 -37 -10 -3 -15 -9 -10 -13 14 -10 16 -32 5 -62 -5 -16
-7 -29 -3 -29 5 0 8 -12 7 -27 0 -16 7 -34 17 -41 10 -7 18 -24 18 -37 0 -13
4 -26 9 -29 9 -6 6 -99 -5 -126 -3 -8 -8 -46 -10 -84 -3 -38 -10 -78 -15 -88
-8 -15 -4 -24 18 -47 26 -26 33 -61 12 -61 -14 0 -40 -66 -33 -85 5 -11 2 -14
-10 -9 -9 3 -16 1 -16 -5 0 -6 5 -11 11 -11 8 0 8 -4 0 -14 -8 -9 -8 -16 -2
-20 9 -6 -29 -56 -43 -56 -4 0 -20 -10 -36 -22 -25 -18 -34 -20 -62 -11 -18 5
-32 15 -31 21 2 7 -3 12 -10 12 -7 0 -18 9 -25 20 -12 20 -12 20 -32 0 -19
-19 -20 -19 -52 -1 -18 10 -32 24 -31 30 2 6 -2 11 -8 11 -6 0 -9 20 -7 49 2
38 6 47 15 39 18 -15 16 -2 -2 16 -11 11 -22 13 -38 6 -12 -5 -50 -16 -85 -26
-34 -10 -57 -21 -52 -24 6 -4 -8 -13 -30 -20 -46 -15 -80 -41 -80 -60 0 -7 -3
-10 -7 -7 -3 4 -13 -2 -21 -14 -8 -11 -20 -18 -28 -15 -9 3 -11 0 -7 -11 4
-11 2 -14 -5 -9 -7 4 -12 1 -12 -7 0 -17 -27 -30 -42 -21 -6 4 -20 -6 -33 -22
l-22 -28 1 25 c1 17 -4 24 -17 24 -10 0 -22 7 -27 15 -13 20 -13 4 1 -23 9
-20 9 -20 -4 -4 -8 9 -20 17 -28 17 -8 0 -10 3 -4 8 13 9 15 52 3 52 -6 0 -8
-7 -4 -15 3 -8 1 -15 -5 -15 -7 0 -9 10 -5 23 3 12 -1 35 -9 50 -8 15 -10 25
-5 22 15 -10 12 11 -4 24 -14 12 -16 35 -3 47 3 4 2 15 -4 25 -7 15 -6 17 6
13 11 -4 15 0 15 16 0 11 -4 18 -10 15 -5 -3 -7 0 -4 9 3 8 1 23 -4 33 -7 13
-6 24 3 36 13 18 31 24 20 7 -3 -6 1 -7 10 -4 9 4 13 9 11 12 -3 3 0 12 7 21
10 14 10 14 -3 4 -9 -7 -21 -8 -29 -4 -9 6 -6 10 11 15 16 4 19 8 11 14 -10 6
-9 13 3 30 16 23 44 30 44 11 0 -5 -5 -7 -12 -3 -7 4 -8 3 -4 -4 4 -7 20 -12
37 -12 16 0 29 -4 29 -9 0 -8 65 -23 180 -39 72 -11 149 -7 164 8 6 6 18 10
28 10 10 0 18 5 18 11 0 5 4 7 10 4 5 -3 19 6 32 20 12 14 26 25 32 25 5 0 18
7 28 16 14 13 21 14 32 5 12 -10 17 -8 27 11 7 13 12 28 10 33 -1 6 4 4 11 -4
11 -11 11 -14 0 -18 -10 -4 -10 -8 -1 -19 9 -12 9 -13 -4 -9 -8 4 -18 1 -22
-4 -3 -6 -11 -8 -17 -5 -6 4 -5 -3 2 -16 9 -18 9 -25 -5 -40 -11 -12 -13 -20
-6 -25 16 -9 31 3 31 26 0 11 7 22 15 25 8 4 12 10 9 15 -3 5 -1 9 4 9 15 0
43 66 45 105 1 19 5 35 8 35 6 0 7 3 11 83 2 33 -1 57 -7 57 -5 0 -4 4 4 9 7
5 11 15 9 22 -3 8 2 20 11 27 15 12 15 13 0 9 -13 -4 -15 -1 -12 14 3 10 -2
35 -11 54 -15 32 -22 37 -42 34 -4 0 -10 5 -15 12 -6 10 -13 10 -34 1 -23 -11
-26 -10 -22 1 4 10 -1 13 -19 9 -13 -2 -31 1 -39 8 -11 9 -15 10 -15 1 0 -11
-96 -10 -219 3 -13 2 -41 -3 -61 -10 -21 -7 -67 -12 -104 -10 -51 2 -69 -1
-75 -12 -7 -13 -10 -12 -20 6 -11 21 -5 48 21 84 10 14 10 22 1 37 -11 18 -10
19 11 15 15 -2 26 2 30 12 3 8 2 13 -3 10 -5 -4 -4 5 2 19 7 14 16 25 21 25 6
0 1 7 -10 16 -10 8 -14 13 -8 10 7 -3 14 1 18 9 3 8 11 12 19 9 8 -3 20 3 27
13 12 15 12 16 0 6 -20 -18 -30 -16 -23 5 7 16 6 16 -11 0 -22 -22 -27 -23
-19 -1 5 12 3 14 -8 8 -8 -4 -2 5 12 20 28 28 55 26 44 -4 -4 -9 3 -6 17 9 13
13 22 28 21 31 -4 12 58 37 78 32 10 -3 17 -9 14 -13 -13 -21 20 -20 53 2 57
37 112 52 145 39 17 -7 35 -7 45 -2 9 4 23 6 30 4 6 -3 12 0 12 7 0 6 4 9 9 5
6 -3 33 4 62 14 29 11 56 18 60 15 4 -2 11 2 16 10 9 16 48 35 73 35 8 0 31
-5 50 -12z m-210 -471 c0 -3 -4 -8 -10 -11 -5 -3 -10 -1 -10 4 0 6 5 11 10 11
6 0 10 -2 10 -4z m783 -50 c3 3 11 3 17 -1 8 -5 6 -13 -6 -26 -14 -15 -20 -17
-32 -6 -10 7 -13 8 -9 1 4 -8 -4 -13 -22 -16 -40 -6 -62 3 -51 22 12 20 72 40
86 29 6 -5 14 -6 17 -3z m-1127 -89 c6 2 14 -5 17 -17 3 -11 1 -18 -4 -14 -5
3 -9 1 -9 -4 0 -9 -42 -9 -137 0 l-32 3 21 22 c26 27 53 32 98 17 19 -6 40 -9
46 -7z m-166 -11 c0 -3 -4 -8 -10 -11 -5 -3 -10 -1 -10 4 0 6 5 11 10 11 6 0
10 -2 10 -4z m1045 -186 c-3 -5 -12 -7 -20 -3 -21 7 -19 13 6 13 11 0 18 -4
14 -10z m-846 -14 c9 -10 9 -16 1 -21 -17 -11 -40 3 -34 20 8 19 18 19 33 1z
m1373 -98 c2 -38 5 -72 6 -85 1 -7 8 -13 16 -13 8 0 18 -5 22 -11 4 -8 -1 -9
-16 -4 -19 6 -22 4 -17 -9 4 -11 3 -15 -4 -10 -7 4 -10 -1 -7 -12 2 -11 -7
-29 -20 -41 -16 -15 -25 -36 -27 -62 -4 -48 -11 -62 -29 -55 -8 3 -16 -1 -18
-10 -2 -12 -13 -10 -60 13 -32 16 -60 26 -63 23 -3 -3 -5 0 -5 6 0 6 -6 9 -14
6 -8 -3 -27 1 -43 9 -15 8 -52 20 -80 28 -29 7 -66 25 -83 41 -17 15 -29 28
-26 28 3 0 1 12 -4 26 -6 15 -6 23 -1 19 5 -3 12 -1 16 5 3 5 -2 10 -12 11
-10 0 -13 3 -6 5 7 3 1 15 -15 31 -17 17 -22 28 -14 31 7 2 10 8 7 13 -4 5 1
6 9 3 9 -3 16 -1 16 5 0 8 5 9 19 1 11 -5 37 -10 58 -11 21 -1 49 -4 63 -8 14
-4 52 -2 85 5 33 7 78 15 100 17 22 2 48 8 58 12 9 4 24 5 32 1 8 -3 15 -1 15
4 0 6 9 10 20 10 14 0 20 -7 22 -22z m28 2 c0 -5 -5 -10 -11 -10 -5 0 -7 5 -4
10 3 6 8 10 11 10 2 0 4 -4 4 -10z m-1276 -432 c-3 -4 1 -8 9 -8 15 0 54 -50
40 -50 -5 0 -1 -5 7 -10 13 -8 13 -11 1 -19 -8 -5 -10 -14 -6 -21 6 -10 0 -12
-28 -7 -29 4 -37 2 -37 -10 0 -9 6 -13 15 -9 8 3 15 1 15 -4 0 -16 -34 -17
-75 -2 -50 19 -47 16 -51 54 -3 28 1 36 26 53 16 11 30 28 30 37 0 9 6 18 13
21 15 5 47 -14 41 -25z m334 -249 c60 -29 41 -41 -37 -21 -57 14 -62 17 -45
29 24 17 30 17 82 -8z m56 -139 c19 -18 20 -18 38 6 23 28 85 33 121 9 19 -12
30 -12 61 -3 37 12 40 11 62 -17 22 -28 24 -28 43 -11 30 28 55 17 59 -25 4
-50 -17 -66 -51 -39 l-26 21 -22 -22 c-17 -17 -29 -20 -62 -16 -27 4 -44 1
-54 -9 -9 -9 -35 -14 -69 -14 -49 0 -56 3 -67 26 l-12 27 -5 -24 c-5 -20 -14
-25 -59 -32 -35 -5 -58 -3 -67 4 -7 6 -22 8 -32 4 -30 -9 -83 -17 -122 -19
-32 -1 -35 2 -38 28 -5 39 26 106 49 106 10 0 21 -5 24 -10 4 -6 12 -4 21 5
19 19 38 19 58 0 12 -12 17 -13 28 -2 40 40 86 43 122 7z m-469 -80 c3 -5 1
-10 -4 -10 -6 0 -11 5 -11 10 0 6 2 10 4 10 3 0 8 -4 11 -10z m-21 -27 c6 -15
8 -15 16 -3 8 12 10 11 10 -5 1 -18 2 -19 13 -3 12 14 14 13 27 -15 8 -18 13
-36 12 -41 -2 -5 4 -4 12 4 13 10 16 10 16 -4 0 -9 -4 -16 -8 -16 -5 0 -9 -7
-9 -15 0 -11 4 -12 14 -4 9 8 13 8 13 0 0 -6 7 -11 15 -11 16 0 20 -12 8 -23
-3 -4 -11 -2 -18 3 -8 7 -12 5 -12 -5 0 -8 4 -15 8 -15 4 0 6 -11 4 -25 -1
-16 3 -25 12 -25 8 0 11 -5 8 -10 -5 -8 -11 -8 -20 0 -8 7 -16 7 -19 2 -7 -11
18 -35 27 -26 3 3 3 -4 0 -15 -3 -12 -10 -24 -16 -28 -6 -4 -8 0 -4 9 8 23
-16 53 -37 45 -10 -4 -15 -3 -11 3 3 6 1 10 -5 10 -7 0 -7 7 1 23 9 17 9 19 0
11 -17 -15 -21 -47 -7 -56 13 -8 8 -13 -23 -23 -16 -5 -21 -4 -17 4 4 6 1 11
-6 11 -9 0 -9 3 2 10 8 5 16 21 17 36 2 21 -2 25 -17 21 -11 -3 -21 1 -24 10
-3 8 -2 12 3 9 10 -7 20 23 14 42 -3 6 -11 12 -19 12 -8 0 -14 3 -15 8 0 4 -2
18 -5 31 -3 18 -1 22 12 17 15 -6 15 -4 3 11 -12 14 -12 16 0 8 11 -6 13 -2 9
19 -6 29 6 36 16 9z m640 -48 c100 13 155 15 161 5 3 -6 -6 -15 -22 -21 -15
-5 -30 -15 -34 -20 -3 -6 -14 -11 -23 -13 -10 -1 -21 -8 -25 -14 -22 -35 -302
-55 -348 -24 -13 8 -23 11 -23 7 0 -8 -25 19 -48 52 -7 10 -10 12 -6 5 5 -11
2 -11 -15 0 -12 7 -21 16 -21 20 0 4 46 5 103 3 140 -6 178 -5 196 5 9 5 23 4
35 -2 11 -6 40 -7 70 -3z m-628 -155 c0 -20 -7 -25 -19 -13 -4 3 -2 12 4 20
15 17 15 17 15 -7z m61 -68 c10 8 17 7 27 -7 16 -22 47 -29 39 -9 -3 8 0 14 6
14 6 0 11 -5 11 -11 0 -5 4 -8 9 -5 4 3 7 -6 5 -19 -3 -31 22 -58 47 -52 12 3
19 0 19 -9 0 -8 5 -14 11 -14 5 0 8 3 6 8 -3 4 48 7 113 7 68 1 116 -3 113 -8
-3 -5 3 -7 13 -3 47 14 85 16 78 5 -5 -8 -3 -9 6 -4 18 11 60 13 66 3 3 -4 0
-8 -7 -8 -7 0 -9 -3 -5 -7 4 -5 12 -8 17 -8 5 0 9 -4 10 -10 0 -5 6 -16 11
-23 9 -10 6 -14 -10 -19 -17 -4 -20 -9 -12 -23 13 -24 -18 -51 -48 -43 -15 3
-24 0 -28 -11 -8 -20 -33 -21 -40 -2 -4 11 -13 12 -35 6 -16 -5 -42 -5 -59 0
-25 7 -30 6 -30 -10 0 -13 -9 -19 -35 -22 -40 -5 -59 10 -48 37 4 12 3 16 -4
12 -6 -4 -24 -2 -39 3 -24 9 -25 9 -14 -5 17 -21 5 -31 -17 -14 -9 8 -14 9
-10 2 4 -6 3 -14 -2 -17 -5 -3 -11 0 -14 8 -4 9 -18 13 -36 12 -20 -1 -31 3
-31 11 0 7 -5 13 -11 13 -5 0 -7 -6 -4 -12 4 -7 0 -5 -8 4 -8 10 -17 15 -20
11 -9 -8 -29 48 -23 64 3 8 1 11 -4 8 -13 -8 -13 8 1 22 8 8 3 18 -18 37 -15
14 -31 26 -35 26 -5 0 -8 5 -8 11 0 6 6 9 14 6 12 -5 13 0 5 25 -6 24 -6 29 3
20 9 -9 15 -9 25 0z m640 -157 c-4 -8 -11 -15 -17 -15 -14 0 -13 27 3 33 16 6
21 1 14 -18z m-447 -130 c-7 -8 -16 -12 -21 -9 -13 8 -1 24 18 24 13 0 13 -3
3 -15z"/>
<path d="M1125 1830 c-3 -5 -1 -10 4 -10 6 0 11 5 11 10 0 6 -2 10 -4 10 -3 0
-8 -4 -11 -10z"/>
<path d="M1110 1775 c-8 -34 -7 -65 1 -70 5 -4 9 -1 9 4 0 6 9 11 19 11 17 0
18 3 8 24 -7 14 -14 20 -18 14 -4 -7 -9 -3 -12 8 -2 10 -6 15 -7 9z"/>
<path d="M1060 1640 c0 -5 5 -10 11 -10 5 0 7 5 4 10 -3 6 -8 10 -11 10 -2 0
-4 -4 -4 -10z"/>
<path d="M1119 1576 c4 -6 11 -18 14 -26 3 -9 6 -5 6 11 1 16 -4 26 -14 26 -9
0 -11 -4 -6 -11z"/>
<path d="M502 1521 c-11 -7 -11 -9 0 -14 9 -3 15 1 15 9 0 8 -1 14 -1 14 -1 0
-7 -4 -14 -9z"/>
<path d="M984 749 c-19 -22 -19 -22 4 -10 12 6 22 16 22 21 0 15 -5 12 -26
-11z"/>
<path d="M1005 611 c-6 -11 9 -23 19 -14 9 9 7 23 -3 23 -6 0 -12 -4 -16 -9z"/>
<path d="M1075 539 c-4 -6 -13 -8 -21 -5 -8 3 -11 0 -8 -8 3 -7 11 -13 19 -13
8 0 13 3 10 5 -3 3 0 11 6 19 6 7 9 13 6 13 -3 0 -9 -5 -12 -11z"/>
</g>
</svg>
